<?xml version="1.0" encoding="utf-8"?>
<!-- Svg Vector Icons : http://www.onlinewebfonts.com/icon -->
<!DOCTYPE svg PUBLIC "-//W3C//DTD SVG 1.1//EN" "http://www.w3.org/Graphics/SVG/1.1/DTD/svg11.dtd">
<svg version="1.1" xmlns="http://www.w3.org/2000/svg" xmlns:xlink="http://www.w3.org/1999/xlink" x="0px" y="0px" viewBox="0 0 1000 1000" enable-background="new 0 0 1000 1000" xml:space="preserve">
<metadata> Svg Vector Icons : http://www.onlinewebfonts.com/icon </metadata>
<g><path d="M654.6,491.5c-15.5-15.5-37.8-15.5-51.6,0l-85.9,103.1L345.2,388.4c-15.5-18.9-37.8-18.9-51.6,0L173.4,560.3c-8.6,10.3-15.5,15.5-17.2,34.4l17.2,171.9l532.8-34.4V577.4c-1.7-13.7-12-25.8-17.2-34.4L654.6,491.5L654.6,491.5z M613.3,398.7c36.1-1.7,65.3-32.7,63.6-70.5s-32.7-67-68.7-65.3c-36.1,1.7-65.3,32.7-63.6,70.5C546.3,371.2,577.2,400.4,613.3,398.7L613.3,398.7z M723.3,147.8L104.6,165c-27.5,1.7-53.3,24.1-51.6,51.6l34.4,721.8c1.7,27.5,24.1,53.3,51.6,51.6l601.5-34.4c27.5-1.7,53.3-24.1,51.6-51.6l-17.2-704.6C773.2,171.8,750.8,146.1,723.3,147.8L723.3,147.8z M139,800.9l-34.4-584.3l618.7-17.2l17.2,567.2L139,800.9L139,800.9z M895.2,79L276.5,10.3c-25.8-3.4-48.1,24.1-51.6,51.6l-17.2,68.7h51.6l17.2-68.7l618.7,68.7l-68.7,567.2v189.1c22.3-1.7,32.7-27.5,34.4-51.6l85.9-687.5C950.2,120.3,921,82.5,895.2,79L895.2,79z"/></g>
</svg>